<mxfile host="app.diagrams.net" modified="2023-10-04T09:58:55.540Z" agent="Mozilla/5.0 (Windows NT 10.0; Win64; x64) AppleWebKit/537.36 (KHTML, like Gecko) Chrome/117.0.0.0 Safari/537.36" version="21.6.2" etag="hgGqlYy9zgs4AWwvPGGX" type="github">
  <diagram name="Halaman-1" id="iJCvdTlnoZYs5IrBKqNu">
    <mxGraphModel>
      <root>
        <mxCell id="0" />
        <mxCell id="1" parent="0" />
      </root>
    </mxGraphModel>
  </diagram>
</mxfile>
